<svg width="13" height="12" viewBox="0 0 13 12" fill="none" xmlns="http://www.w3.org/2000/svg">
<path d="M7.09062 3.01864C7.09062 1.40855 5.76504 0.0983887 4.13601 0.0983887C2.50697 0.0983887 1.1814 1.40855 1.1814 3.01864C1.1814 4.62874 2.50697 5.9389 4.13601 5.9389C5.76504 5.9389 7.09062 4.62874 7.09062 3.01864Z" fill="white"/>
<path d="M0 10.0273V11.8184H8.27291V10.0273C8.27291 7.77319 6.41705 5.9389 4.13646 5.9389C1.85587 5.9389 0 7.77319 0 10.0273Z" fill="white"/>
<path d="M12.9995 11.1954C12.9995 9.58528 11.674 8.27512 10.0449 8.27512C9.73931 8.27512 9.45031 8.33443 9.17285 8.41991C9.34013 8.92974 9.454 9.46314 9.454 10.0273V11.8184H12.9995V11.1954Z" fill="white"/>
<path d="M12.4098 5.93891C12.4098 4.6505 11.3496 3.60271 10.0461 3.60271C8.74249 3.60271 7.68237 4.6505 7.68237 5.93891C7.68237 6.01329 7.69761 6.08355 7.70453 6.15611C8.2873 6.68114 8.75727 7.32193 9.05919 8.05488C9.3605 8.19283 9.69274 8.27512 10.0461 8.27512C11.3496 8.27512 12.4098 7.22732 12.4098 5.93891Z" fill="white"/>
</svg>
