<svg width="33" height="38" viewBox="0 0 33 38" fill="none" xmlns="http://www.w3.org/2000/svg">
<path d="M30.055 2.65271C26.8755 -0.309202 23.2764 -0.305162 20.5862 0.35946C17.9061 1.02146 15.094 1.02146 12.4138 0.35946C9.7236 -0.305162 6.12454 -0.309202 2.9449 2.65271C-3.07958 8.26483 1.76827 18.2899 3.22736 20.0167C4.68646 21.7435 4.73343 24.0459 5.76893 28.7467C6.80443 33.4475 8.12219 37.9084 10.7579 37.2369C13.3936 36.5654 14.0997 33.3037 14.7586 28.9386C14.804 28.6384 14.8511 28.3568 14.8999 28.0922C15.2349 26.2773 17.765 26.2773 18.1 28.0922C18.1487 28.3566 18.1961 28.6384 18.2415 28.9386C18.9004 33.3037 19.6064 36.5654 22.2421 37.2369C24.8779 37.9084 26.1956 33.4475 27.2311 28.7467C28.2666 24.0459 28.3136 21.7435 29.7727 20.0167C31.2318 18.2899 36.0796 8.26483 30.055 2.65271ZM11.6539 4.83303C11.5809 5.38453 11.084 5.77199 10.5432 5.70007C10.3496 5.67563 6.05298 5.19221 4.84582 9.97264C4.73066 10.4284 4.32808 10.7312 3.88664 10.7312C3.80478 10.7312 3.72172 10.7209 3.63887 10.6991C3.10883 10.5601 2.7897 10.0094 2.92607 9.46923C4.24879 4.23104 8.65718 3.40379 10.8035 3.69732C11.346 3.77166 11.7266 4.28012 11.6539 4.83303Z" fill="white"/>
</svg>
