<svg width="20" height="21" viewBox="0 0 20 21" fill="none" xmlns="http://www.w3.org/2000/svg">
<path d="M3.19173 13.2196H11.2812C12.0532 11.9594 13.3164 11.0428 14.7957 10.7506V2.80658C14.7957 1.79028 13.9688 0.963432 12.9525 0.963432H11.6327V1.65561C11.6327 2.57239 10.8868 3.31828 9.97003 3.31828H4.82563C3.90886 3.31828 3.16297 2.57239 3.16297 1.65561V0.963432H1.84315C0.826849 0.963432 0 1.79028 0 2.80658V18.3765C0 19.3928 0.826849 20.2196 1.84315 20.2196H12.3333C11.1954 19.2206 10.4738 17.7419 10.4738 16.0945C10.4738 15.521 10.5615 14.9679 10.7235 14.4484H3.19173C2.85242 14.4484 2.57733 14.1733 2.57733 13.834C2.57733 13.4947 2.85242 13.2196 3.19173 13.2196ZM3.19173 5.95971H11.6048C11.9442 5.95971 12.2192 6.2348 12.2192 6.57411C12.2192 6.91341 11.9442 7.1885 11.6048 7.1885H3.19173C2.85242 7.1885 2.57733 6.91341 2.57733 6.57411C2.57733 6.2348 2.85242 5.95971 3.19173 5.95971ZM3.19173 8.37965H11.6048C11.9442 8.37965 12.2192 8.65474 12.2192 8.99404C12.2192 9.33335 11.9442 9.60844 11.6048 9.60844H3.19173C2.85242 9.60844 2.57733 9.33335 2.57733 8.99404C2.57733 8.65474 2.85242 8.37965 3.19173 8.37965ZM3.19173 10.7997H11.6048C11.9442 10.7997 12.2192 11.0747 12.2192 11.4141C12.2192 11.7534 11.9442 12.0285 11.6048 12.0285H3.19173C2.85242 12.0285 2.57733 11.7534 2.57733 11.4141C2.57733 11.0747 2.85242 10.7997 3.19173 10.7997Z" fill="white"/>
<path d="M15.8141 11.88C13.5474 11.88 11.7034 13.7707 11.7034 16.0947C11.7034 18.4186 13.5474 20.3093 15.8141 20.3093C18.0808 20.3093 19.9248 18.4186 19.9248 16.0947C19.9248 13.7707 18.0808 11.88 15.8141 11.88ZM17.5345 18.398C17.4242 18.4804 17.2952 18.5202 17.1673 18.5202C16.9801 18.5202 16.7952 18.4349 16.6746 18.2734L15.3219 16.4623C15.2426 16.3561 15.1997 16.2272 15.1997 16.0947V14.7828C15.1997 14.4435 15.4748 14.1684 15.8141 14.1684C16.1534 14.1684 16.4285 14.4435 16.4285 14.7828V15.8905L17.6591 17.5381C17.8621 17.81 17.8063 18.195 17.5345 18.398Z" fill="white"/>
<path d="M9.96966 0H4.82527C4.586 0 4.39136 0.194644 4.39136 0.433912V1.65572C4.39136 1.89499 4.586 2.08963 4.82527 2.08963H9.96966C10.2089 2.08963 10.4036 1.89499 10.4036 1.65572V0.433912C10.4036 0.194644 10.2089 0 9.96966 0Z" fill="white"/>
</svg>
