<svg width="44" height="27" viewBox="0 0 44 27" fill="none" xmlns="http://www.w3.org/2000/svg">
<path d="M22 0.00012207C13.5933 0.00012207 5.96972 4.57248 0.344277 11.9992C-0.114759 12.6077 -0.114759 13.4577 0.344277 14.0662C5.96972 21.5018 13.5933 26.0742 22 26.0742C30.4067 26.0742 38.0303 21.5018 43.6557 14.0751C44.1148 13.4667 44.1148 12.6166 43.6557 12.0082C38.0303 4.57248 30.4067 0.00012207 22 0.00012207ZM22.603 22.2177C17.0226 22.5666 12.4142 17.9943 12.7653 12.4377C13.0533 7.85635 16.7886 4.14298 21.397 3.85665C26.9774 3.50768 31.5858 8.08004 31.2347 13.6367C30.9377 18.209 27.2024 21.9224 22.603 22.2177ZM22.324 17.9764C19.3178 18.1643 16.8336 15.7036 17.0316 12.715C17.1846 10.2454 19.2008 8.25005 21.685 8.08899C24.6912 7.90109 27.1754 10.3617 26.9774 13.3503C26.8154 15.8289 24.7992 17.8243 22.324 17.9764Z" fill="white"/>
</svg>
