<svg width="29" height="29" viewBox="0 0 29 29" fill="none" xmlns="http://www.w3.org/2000/svg">
<path d="M21.5691 7.53161C20.8886 5.44559 21.3661 3.20131 22.0983 1.13279C22.1836 0.891776 22.1563 0.623009 22.0198 0.403236C21.8646 0.152651 21.5916 0 21.2971 0H7.71539C7.42085 0 7.14784 0.152651 6.99269 0.403236C6.83755 0.653822 6.82345 0.966601 6.95537 1.22965C7.89795 3.11397 8.09206 5.3237 7.50882 7.32917C6.9471 9.10145 6.12482 10.7169 5.32917 12.2785C5.08419 12.7591 4.84419 13.2327 4.61304 13.7045L8.44149 15.6189C12.1852 17.4908 16.815 17.4908 20.5587 15.6189L24.3966 13.7001C24.1684 13.2357 23.9315 12.77 23.6901 12.2976C22.922 10.7962 22.1271 9.2421 21.5691 7.53161ZM14.5 15.3501C14.0308 15.3501 13.6504 14.9697 13.6504 14.5004C13.6504 14.0311 14.0308 13.6508 14.5 13.6508C14.9692 13.6508 15.3496 14.0311 15.3496 14.5004C15.3496 14.9697 14.9692 15.3501 14.5 15.3501Z" fill="white"/>
<path d="M0.849634 6.85357H2.25374L2.0048 7.10252C1.67293 7.43438 1.67293 7.97209 2.0048 8.30396C2.33666 8.63582 2.87437 8.63582 3.20624 8.30396L4.90551 6.60469C5.23737 6.27282 5.23737 5.73511 4.90551 5.40325L3.20624 3.70398C2.87437 3.37211 2.33666 3.37211 2.0048 3.70398C1.67293 4.03585 1.67293 4.57355 2.0048 4.90542L2.25374 5.1543H0.849634C0.380013 5.1543 0 5.53432 0 6.00394C0 6.47356 0.380013 6.85357 0.849634 6.85357Z" fill="white"/>
<path d="M28.1505 5.15436H26.7464L26.9953 4.90542C27.3272 4.57355 27.3272 4.03585 26.9953 3.70398C26.6634 3.37211 26.1257 3.37211 25.7939 3.70398L24.0946 5.40325C23.7627 5.73511 23.7627 6.27282 24.0946 6.60469L25.7939 8.30396C26.1257 8.63582 26.6634 8.63582 26.9953 8.30396C27.3272 7.97209 27.3272 7.43438 26.9953 7.10252L26.7464 6.85363H28.1505C28.6201 6.85363 29.0001 6.47362 29.0001 6.004C29.0001 5.53437 28.6201 5.15436 28.1505 5.15436Z" fill="white"/>
<path d="M25.1035 15.2469L21.3191 17.139C19.2125 18.1919 16.8553 18.7487 14.5005 18.7487C12.1458 18.7487 9.78858 18.1919 7.68188 17.139L3.90831 15.2522C3.55838 16.0782 3.25398 16.9136 3.04543 17.7904C2.82554 18.714 2.68427 19.6483 2.60254 20.586C6.63156 19.7063 10.1787 20.8718 13.402 24.0954C13.7372 24.3667 15.2647 24.3675 15.6049 24.0895C17.8764 21.8169 21.2371 19.4286 26.4112 20.5938C26.3295 19.6534 26.1886 18.7163 25.9681 17.7903C25.7581 16.9073 25.4533 16.0711 25.1035 15.2469Z" fill="white"/>
<path d="M16.8004 25.2969C16.6483 25.449 16.4346 25.5668 16.1997 25.6689V28.1514C16.1997 28.6206 16.5801 29.001 17.0493 29.001H24.6961C25.055 29.001 25.3839 28.7727 25.4977 28.4322C26.1493 26.4814 26.4446 24.3952 26.4552 22.3605C21.885 21.1802 18.9521 23.1452 16.8004 25.2969Z" fill="white"/>
<path d="M2.55859 22.3397C2.56698 24.3814 2.86174 26.4749 3.51568 28.4325C3.62942 28.773 3.95828 29.0012 4.31728 29.0012H11.9515C12.4208 29.0012 12.8012 28.6208 12.8012 28.1516V25.6691C12.5663 25.5671 12.3526 25.4493 12.2005 25.2971C10.0064 23.1031 7.07049 21.1837 2.55859 22.3397Z" fill="white"/>
</svg>
