<svg width="18" height="24" viewBox="0 0 18 24" fill="none" xmlns="http://www.w3.org/2000/svg">
<path d="M18 2.96876C18 1.51305 16.8203 0.333344 15.3646 0.333344H3.38542C1.92971 0.333344 0.75 1.51305 0.75 2.96876V20.6979C0.75 22.1536 1.92971 23.3333 3.38542 23.3333H15.3646C16.8203 23.3333 18 22.1536 18 20.6979V2.96876ZM6.385 9.19793H5.65667C4.53637 9.19793 3.625 8.28655 3.625 7.16626C3.625 6.15905 4.35142 5.33009 5.30208 5.16143V4.40626C5.30208 4.00951 5.62408 3.68751 6.02083 3.68751C6.41758 3.68751 6.73958 4.00951 6.73958 4.40626V5.12501H7.69792C8.09467 5.12501 8.41667 5.44701 8.41667 5.84376C8.41667 6.24051 8.09467 6.56251 7.69792 6.56251H5.65667C5.32892 6.56251 5.0625 6.82893 5.0625 7.15668C5.0625 7.49401 5.32892 7.76043 5.65667 7.76043H6.385C7.50529 7.76043 8.41667 8.6718 8.41667 9.79209C8.41667 10.7993 7.69025 11.6283 6.73958 11.7969V12.5511C6.73958 12.9479 6.41758 13.2699 6.02083 13.2699C5.62408 13.2699 5.30208 12.9479 5.30208 12.5511V11.8333H4.34375C3.947 11.8333 3.625 11.5113 3.625 11.1146C3.625 10.7178 3.947 10.3958 4.34375 10.3958H6.385C6.71275 10.3958 6.97917 10.1294 6.97917 9.80168C6.97917 9.46434 6.71275 9.19793 6.385 9.19793ZM14.4062 20.4583H4.34375C3.947 20.4583 3.625 20.1363 3.625 19.7396C3.625 19.3428 3.947 19.0208 4.34375 19.0208H14.4062C14.803 19.0208 15.125 19.3428 15.125 19.7396C15.125 20.1363 14.803 20.4583 14.4062 20.4583ZM14.4062 16.625H4.34375C3.947 16.625 3.625 16.303 3.625 15.9063C3.625 15.5095 3.947 15.1875 4.34375 15.1875H14.4062C14.803 15.1875 15.125 15.5095 15.125 15.9063C15.125 16.303 14.803 16.625 14.4062 16.625ZM14.4062 12.7917H11.0521C10.6553 12.7917 10.3333 12.4697 10.3333 12.0729C10.3333 11.6762 10.6553 11.3542 11.0521 11.3542H14.4062C14.803 11.3542 15.125 11.6762 15.125 12.0729C15.125 12.4697 14.803 12.7917 14.4062 12.7917ZM14.4062 8.95834H11.0521C10.6553 8.95834 10.3333 8.63634 10.3333 8.23959C10.3333 7.84284 10.6553 7.52084 11.0521 7.52084H14.4062C14.803 7.52084 15.125 7.84284 15.125 8.23959C15.125 8.63634 14.803 8.95834 14.4062 8.95834Z" fill="#677294"/>
</svg>
