<svg width="17" height="21" viewBox="0 0 17 21" fill="none" xmlns="http://www.w3.org/2000/svg">
<path d="M4.60129 2.63765L7.66173 0.79873L7.35523 0.288637C7.18607 0.00712934 6.82035 -0.0842336 6.53868 0.0850437L4.49835 1.31097C4.2168 1.48012 4.12551 1.84585 4.29475 2.12752L4.60129 2.63765Z" fill="white"/>
<path d="M16.9137 13.8878C16.7431 13.6069 16.3769 13.5173 16.096 13.6879L12.7751 15.7051C12.933 16.084 13.0358 16.4906 13.0743 16.9159L16.7137 14.705C16.9949 14.5344 17.0842 14.1687 16.9137 13.8878Z" fill="white"/>
<path d="M13.6867 19.1215H11.9015V17.2966C11.9015 15.656 10.5668 14.3212 8.92618 14.3212C7.28557 14.3212 5.95083 15.656 5.95083 17.2966V19.1215H4.16563C3.83699 19.1215 3.57056 19.3879 3.57056 19.7165C3.57056 20.0452 3.83699 20.3116 4.16563 20.3116H13.6867C14.0154 20.3116 14.2818 20.0452 14.2818 19.7165C14.2818 19.3879 14.0154 19.1215 13.6867 19.1215ZM8.92618 17.8917C8.59754 17.8917 8.33111 17.6252 8.33111 17.2966C8.33111 16.968 8.59754 16.7015 8.92618 16.7015C9.25482 16.7015 9.52125 16.968 9.52125 17.2966C9.52125 17.6252 9.25482 17.8917 8.92618 17.8917Z" fill="white"/>
<path d="M4.5011 4.78069L5.12886 5.82543L6.39811 5.05795C7.90264 4.14825 9.84233 4.6552 10.7351 6.11447C11.6539 7.61655 11.1723 9.57607 9.66151 10.4808L8.38532 11.2451L8.79191 11.9218C8.96186 12.2046 9.32918 12.2945 9.61021 12.1243C9.62898 12.113 9.82816 11.9933 10.1289 11.8126L11.0419 13.332C11.2114 13.6142 11.5775 13.7044 11.8584 13.5356L13.8987 12.3097C14.1804 12.1404 14.2715 11.7749 14.1023 11.4931L13.1894 9.9737C13.4939 9.79069 13.6891 9.67346 13.6891 9.67346C13.9708 9.50419 14.0619 9.13862 13.8926 8.85691C13.8784 8.83323 9.59795 1.70814 9.58232 1.68541C9.4042 1.42612 9.05501 1.35027 8.78537 1.51233L4.7047 3.96413C4.42299 4.13341 4.33183 4.49898 4.5011 4.78069Z" fill="white"/>
<path d="M4.76055 17.2967C4.76055 16.1322 5.24109 15.078 6.01401 14.3214H5.35562C4.37126 14.3214 3.57042 13.5205 3.57042 12.5362C3.57042 11.5518 4.37126 10.751 5.35539 10.751C5.35566 10.751 6.72865 10.7516 6.72857 10.7516C6.83627 10.7515 6.94192 10.7223 7.03431 10.667L9.04989 9.45987C9.9924 8.89543 10.293 7.67284 9.71974 6.73568C9.15447 5.8117 7.94056 5.51611 7.0138 6.07646L5.1848 7.18246C2.31042 7.27271 0 9.63962 0 12.5362C0 15.2881 2.08647 17.5616 4.76055 17.8586V17.2967Z" fill="white"/>
</svg>
