<svg width="72" height="70" viewBox="0 0 72 70" fill="none" xmlns="http://www.w3.org/2000/svg">
<path d="M7.49996 30.7083C3.366 30.7083 0 34.0743 0 38.2082V62.2083C0 66.3423 3.366 69.7083 7.49996 69.7083H16.5C18.189 69.7083 19.7429 69.1383 21 68.1902V30.7083H7.49996Z" fill="#0EBE7F"/>
<path d="M72.0003 41.9583C72.0003 40.1553 71.2863 38.4753 70.0473 37.2362C71.4483 35.7033 72.1623 33.6482 71.9672 31.5092C71.6162 27.6962 68.1812 24.7082 64.1433 24.7082H45.6122C46.5302 21.9211 48.0002 16.8122 48.0002 12.7082C48.0002 6.20121 42.4712 0.708252 39.0002 0.708252C35.8832 0.708252 33.6571 2.46325 33.5612 2.53525C33.2073 2.8203 33.0003 3.2523 33.0003 3.70821V13.8812L24.3602 32.5983L24.0002 32.7812V64.9353C26.4422 66.0873 29.5322 66.7083 31.5002 66.7083H59.0373C62.3043 66.7083 65.1633 64.5062 65.8353 61.4673C66.1802 59.9043 65.9793 58.3293 65.2923 56.9613C67.5093 55.8453 69.0003 53.5622 69.0003 50.9583C69.0003 49.8963 68.7573 48.8793 68.2954 47.9583C70.5123 46.8423 72.0003 44.5593 72.0003 41.9583Z" fill="#0EBE7F"/>
</svg>
