<svg width="119" height="120" viewBox="0 0 119 120" fill="none" xmlns="http://www.w3.org/2000/svg">
<path d="M29.2047 117.362C39.6417 117.362 48.1026 113.914 48.1026 109.661C48.1026 105.408 39.6417 101.96 29.2047 101.96C18.7676 101.96 10.3067 105.408 10.3067 109.661C10.3067 113.914 18.7676 117.362 29.2047 117.362Z" fill="#FFDB56"/>
<path d="M46.4537 106.516C43.502 109.202 36.891 111.074 29.2032 111.074C21.5154 111.074 14.9044 109.202 11.9528 106.516C10.8973 107.477 10.3057 108.54 10.3057 109.66C10.3057 113.914 18.7664 117.362 29.2034 117.362C39.6403 117.362 48.1012 113.914 48.1012 109.66C48.1007 108.54 47.5086 107.477 46.4537 106.516Z" fill="#FFBB24"/>
<path d="M29.2042 37.5493C14.0402 37.5493 1.74719 49.8421 1.74719 65.0063C1.74719 88.0981 29.2042 109.345 29.2042 109.345C29.2042 109.345 56.6612 88.0981 56.6612 65.0063C56.6612 49.8421 44.3684 37.5493 29.2042 37.5493ZM29.2042 75.9572C23.1562 75.9572 18.2532 71.0543 18.2532 65.0063C18.2532 58.9583 23.1562 54.0551 29.2042 54.0551C35.2522 54.0551 40.1554 58.958 40.1554 65.0063C40.1554 71.0543 35.2524 75.9572 29.2042 75.9572Z" fill="#FF4A4A"/>
<path d="M29.2031 37.5493C28.1398 37.5493 27.0913 37.6116 26.0593 37.7296C39.7423 39.2896 50.3725 50.9057 50.3725 65.0063C50.3725 83.2347 33.2663 100.31 26.0593 106.696C27.9823 108.4 29.2031 109.345 29.2031 109.345C29.2031 109.345 56.6601 88.0986 56.6601 65.0067C56.6601 49.8421 44.3673 37.5493 29.2031 37.5493Z" fill="#E7343F"/>
<path d="M96.1486 63.0875C104.17 63.0875 110.673 60.4376 110.673 57.1687C110.673 53.8998 104.17 51.2498 96.1486 51.2498C88.127 51.2498 81.6241 53.8998 81.6241 57.1687C81.6241 60.4376 88.127 63.0875 96.1486 63.0875Z" fill="#FFDB56"/>
<path d="M108.455 54.0251C105.885 55.6916 101.337 56.8001 96.1504 56.8001C90.9641 56.8001 86.4156 55.6916 83.8462 54.0251C82.4415 54.9361 81.6262 56.0134 81.6262 57.1689C81.6262 60.4381 88.1287 63.0878 96.1504 63.0878C104.172 63.0878 110.675 60.4376 110.675 57.1689C110.675 56.0134 109.859 54.9363 108.455 54.0251Z" fill="#FFBB24"/>
<path d="M96.1506 1.74654C84.4959 1.74654 75.0482 11.1945 75.0482 22.8492C75.0482 40.597 96.1506 56.9267 96.1506 56.9267C96.1506 56.9267 117.253 40.597 117.253 22.8492C117.253 11.1945 107.805 1.74654 96.1506 1.74654ZM96.1506 31.2658C91.5021 31.2658 87.7339 27.4976 87.7339 22.8492C87.7339 18.2007 91.5021 14.4325 96.1506 14.4325C100.799 14.4325 104.567 18.2007 104.567 22.8492C104.567 27.4976 100.799 31.2658 96.1506 31.2658Z" fill="#FF4A4A"/>
<path d="M96.1506 1.74654C95.0822 1.74654 94.0327 1.82657 93.0068 1.97988C103.17 3.49804 110.965 12.263 110.965 22.8489C110.965 36.277 98.8871 48.8913 93.0068 54.2369C94.8984 55.9568 96.1506 56.9264 96.1506 56.9264C96.1506 56.9264 117.253 40.5967 117.253 22.8489C117.253 11.1945 107.805 1.74654 96.1506 1.74654Z" fill="#E7343F"/>
<path d="M73.4949 58.9154C74.4593 58.9154 75.2415 58.1338 75.2415 57.1688C75.2415 56.2039 74.4593 55.4222 73.4949 55.4222H72.6974C72.1167 55.4222 71.5333 55.4606 70.9624 55.5367C70.0065 55.6639 69.3344 56.5419 69.4615 57.4985C69.5785 58.3764 70.3285 59.015 71.1906 59.015C71.2674 59.015 71.3451 59.0101 71.4233 58.9997C71.8418 58.9441 72.2705 58.9159 72.6976 58.9159H73.4949V58.9154Z" fill="black"/>
<path d="M67.7202 107.824C67.7174 107.824 67.7149 107.824 67.7121 107.824L65.4053 107.835C64.4408 107.839 63.6624 108.625 63.6666 109.589C63.671 110.551 64.4522 111.328 65.413 111.328C65.4157 111.328 65.4185 111.328 65.4211 111.328L67.7279 111.318C68.6924 111.313 69.4708 110.528 69.4666 109.563C69.4624 108.601 68.681 107.824 67.7202 107.824Z" fill="black"/>
<path d="M75.5672 81.539C76.5319 81.539 77.3138 80.7571 77.3138 79.7924C77.3138 78.8277 76.5319 78.0458 75.5672 78.0458H73.2604C72.2957 78.0458 71.5138 78.8274 71.5138 79.7924C71.5138 80.7571 72.2957 81.539 73.2604 81.539H75.5672Z" fill="black"/>
<path d="M62.4839 63.3083C62.7921 63.5298 63.1483 63.6363 63.5014 63.6363C64.0446 63.6363 64.5802 63.3834 64.9214 62.9084C65.3006 62.3805 65.7352 61.8892 66.2128 61.4486C66.9219 60.7947 66.9663 59.6897 66.3123 58.9806C65.6584 58.272 64.5539 58.2273 63.8443 58.881C63.1932 59.4815 62.6009 60.1508 62.084 60.8705C61.5215 61.6545 61.7006 62.7458 62.4839 63.3083Z" fill="black"/>
<path d="M76.9477 107.782C76.9449 107.782 76.9424 107.782 76.9396 107.782L74.633 107.793C73.6685 107.797 72.8901 108.583 72.8943 109.547C72.8987 110.509 73.6797 111.286 74.6407 111.286C74.6435 111.286 74.646 111.286 74.6488 111.286L76.9554 111.275C77.9199 111.271 78.6983 110.485 78.6941 109.521C78.6899 108.559 77.9085 107.782 76.9477 107.782Z" fill="black"/>
<path d="M58.4925 107.866C58.4897 107.866 58.4871 107.866 58.4843 107.866L56.1776 107.877C55.2131 107.881 54.4347 108.667 54.4389 109.631C54.4433 110.593 55.2242 111.37 56.1852 111.37C56.188 111.37 56.1906 111.37 56.1934 111.37L58.5002 111.359C59.4647 111.355 60.2431 110.569 60.2389 109.605C60.2347 108.643 59.4537 107.866 58.4925 107.866Z" fill="black"/>
<path d="M66.669 79.8017C67.2487 79.8017 67.8157 79.5135 68.1481 78.9866C68.6627 78.1707 68.4184 77.0923 67.6026 76.5774C67.054 76.2313 66.5376 75.827 66.0688 75.3764C65.3735 74.7075 64.2675 74.7296 63.5994 75.4243C62.9306 76.1194 62.9522 77.2251 63.6473 77.8937C64.2866 78.5085 64.9903 79.0596 65.7392 79.5319C66.0281 79.7147 66.3503 79.8017 66.669 79.8017Z" fill="black"/>
<path d="M63.3083 70.322C63.191 69.7199 63.1315 69.1006 63.1315 68.4809L63.1319 68.3839C63.1433 67.4194 62.3705 66.6284 61.4058 66.6173C61.399 66.617 61.3921 66.617 61.3851 66.617C60.4299 66.617 59.6501 67.3857 59.6389 68.3434L59.6382 68.4811C59.6382 69.3247 59.7194 70.1689 59.8795 70.9903C60.0419 71.8243 60.7728 72.4029 61.5921 72.4029C61.7026 72.4029 61.8152 72.3924 61.928 72.3703C62.8749 72.1858 63.4927 71.2688 63.3083 70.322Z" fill="black"/>
<path d="M84.795 81.539C85.7597 81.539 86.5416 80.7571 86.5416 79.7924C86.5416 78.8277 85.7597 78.0458 84.795 78.0458H82.4882C81.5235 78.0458 80.7416 78.8274 80.7416 79.7924C80.7416 80.7571 81.5235 81.539 82.4882 81.539H84.795Z" fill="black"/>
<path d="M111.753 84.7194C112.269 84.7194 112.78 84.4914 113.125 84.055C113.723 83.298 113.594 82.1995 112.837 81.6019C112.164 81.0708 111.444 80.5881 110.698 80.1684C109.859 79.6947 108.793 79.9923 108.319 80.8328C107.846 81.6731 108.143 82.7385 108.984 83.2117C109.573 83.5434 110.141 83.9242 110.672 84.3437C110.993 84.597 111.374 84.7194 111.753 84.7194Z" fill="black"/>
<path d="M104.384 107.543C103.812 107.622 103.226 107.663 102.642 107.666L102.315 107.667C101.35 107.672 100.572 108.458 100.577 109.422C100.581 110.384 101.362 111.16 102.323 111.16C102.326 111.16 102.329 111.16 102.332 111.16L102.658 111.159C103.395 111.156 104.137 111.103 104.862 111.003C105.817 110.871 106.485 109.989 106.353 109.034C106.22 108.078 105.337 107.409 104.384 107.543Z" fill="black"/>
<path d="M111.593 104.062C111.103 104.529 110.572 104.961 110.016 105.347C109.223 105.896 109.026 106.985 109.575 107.778C109.915 108.267 110.459 108.529 111.012 108.529C111.356 108.529 111.702 108.428 112.006 108.218C112.71 107.73 113.382 107.183 114.002 106.592C114.7 105.926 114.727 104.821 114.062 104.122C113.396 103.423 112.291 103.397 111.593 104.062Z" fill="black"/>
<path d="M117.46 95.6394C116.514 95.461 115.599 96.0844 115.421 97.0324C115.295 97.697 115.117 98.3568 114.89 98.993C114.566 99.9015 115.04 100.901 115.949 101.225C116.143 101.294 116.341 101.327 116.535 101.327C117.253 101.327 117.926 100.881 118.181 100.166C118.468 99.359 118.695 98.5222 118.854 97.6789C119.032 96.7311 118.408 95.8178 117.46 95.6394Z" fill="black"/>
<path d="M115.273 86.7652C114.399 87.1732 114.021 88.2124 114.429 89.0866C114.715 89.6996 114.954 90.3398 115.141 90.9886C115.361 91.7547 116.059 92.2539 116.818 92.2539C116.978 92.2539 117.14 92.2318 117.301 92.1857C118.228 91.9196 118.764 90.9521 118.498 90.025C118.261 89.2004 117.957 88.388 117.594 87.6094C117.186 86.7354 116.148 86.3576 115.273 86.7652Z" fill="black"/>
<path d="M94.0217 81.539C94.9865 81.539 95.7683 80.7571 95.7683 79.7924C95.7683 78.8277 94.9865 78.0458 94.0217 78.0458H91.7149C90.7502 78.0458 89.9683 78.8274 89.9683 79.7924C89.9683 80.7571 90.7502 81.539 91.7149 81.539H94.0217Z" fill="black"/>
<path d="M86.1757 107.74C86.1729 107.74 86.1704 107.74 86.1676 107.74L83.8608 107.751C82.8963 107.755 82.1179 108.541 82.1221 109.505C82.1265 110.467 82.9075 111.244 83.8685 111.244C83.8713 111.244 83.8738 111.244 83.8766 111.244L86.1834 111.233C87.1479 111.229 87.9263 110.443 87.9221 109.479C87.9179 108.517 87.1367 107.74 86.1757 107.74Z" fill="black"/>
<path d="M102.583 81.539C102.78 81.539 102.977 81.5435 103.172 81.5521C103.198 81.5535 103.224 81.5539 103.25 81.5539C104.179 81.5539 104.953 80.8218 104.994 79.8848C105.037 78.921 104.29 78.1051 103.326 78.0628C103.079 78.0516 102.829 78.0463 102.583 78.0463H100.943C99.9779 78.0463 99.196 78.8279 99.196 79.7929C99.196 80.7576 99.9779 81.5395 100.943 81.5395L102.583 81.539Z" fill="black"/>
<path d="M95.4027 107.699C95.3999 107.699 95.3973 107.699 95.3946 107.699L93.0875 107.709C92.123 107.713 91.3446 108.499 91.3488 109.464C91.353 110.426 92.1342 111.202 93.0952 111.202C93.098 111.202 93.1006 111.202 93.1033 111.202L95.4101 111.192C96.3746 111.188 97.153 110.402 97.1488 109.437C97.1446 108.475 96.3635 107.699 95.4027 107.699Z" fill="black"/>
</svg>
