<svg width="88" height="118" viewBox="0 0 88 118" fill="none" xmlns="http://www.w3.org/2000/svg">
<path d="M85.0054 118H9.35085C8.05908 118 7.01183 116.953 7.01183 115.661V97.208H87.3442V115.661C87.3445 116.953 86.2972 118 85.0054 118Z" fill="#BED8FB"/>
<path d="M7.01241 24.4364V109.022H79.7841C83.9597 109.022 87.3448 105.637 87.3448 101.461V24.4364H7.01241Z" fill="#F9F6F6"/>
<path d="M81.2014 24.4364V101.461C81.2014 105.637 77.8163 109.022 73.6407 109.022H79.7838C83.9595 109.022 87.3446 105.637 87.3446 101.461V24.4364H81.2014Z" fill="#DDDAEC"/>
<path d="M87.3448 24.4363H7.01241V11.6539C7.01241 10.3621 8.05966 9.31483 9.35143 9.31483H85.006C86.2978 9.31483 87.345 10.3621 87.345 11.6539V24.4363H87.3448Z" fill="#0EBE7F"/>
<path d="M87.3443 24.4363H81.2011V9.31483H85.0052C86.297 9.31483 87.3443 10.3621 87.3443 11.6539V24.4363Z" fill="#03915E"/>
<path d="M2.34357 101.461C0.603297 101.461 -0.529458 103.295 0.251601 104.85C1.49429 107.324 4.0548 109.022 7.01194 109.022H79.7836C76.2173 109.022 73.2277 106.552 72.431 103.23C72.1809 102.188 71.236 101.461 70.1638 101.461H2.34357Z" fill="#CBE2FF"/>
<path d="M21.1886 38.1543V33.4005C21.1886 32.6254 21.8168 31.9971 22.5919 31.9971H71.7649C72.54 31.9971 73.1683 32.6254 73.1683 33.4005V38.1543C73.1683 38.9294 72.54 39.5577 71.7649 39.5577H22.5919C21.8168 39.5577 21.1886 38.9294 21.1886 38.1543Z" fill="#0EBE7F"/>
<path d="M52.9849 9.31485C52.9849 6.11318 50.3802 3.50843 47.1785 3.50843C43.9768 3.50843 41.3721 6.11318 41.3721 9.31485C41.3721 12.5165 43.9768 15.1213 47.1785 15.1213C48.1474 15.1213 48.9326 15.9067 48.9326 16.8754C48.9326 17.844 48.1471 18.6295 47.1785 18.6295C42.0423 18.6295 37.8636 14.4508 37.8636 9.31462C37.8636 4.1784 42.042 0 47.1783 0C52.3145 0 56.4931 4.17863 56.4931 9.31485H52.9849Z" fill="#D0CEE7"/>
<path d="M31.7204 9.31485C31.7204 6.11318 29.1156 3.50843 25.9139 3.50843C22.7123 3.50843 20.1075 6.11318 20.1075 9.31485C20.1075 12.5165 22.7123 15.1213 25.9139 15.1213C26.8828 15.1213 27.668 15.9067 27.668 16.8754C27.668 17.844 26.8826 18.6295 25.9139 18.6295C20.7777 18.6295 16.5991 14.4508 16.5991 9.31462C16.5991 4.1784 20.7775 0 25.9137 0C31.0499 0 35.2286 4.17863 35.2286 9.31485H31.7204Z" fill="#D0CEE7"/>
<path d="M74.2495 9.31485C74.2495 6.11318 71.6447 3.50843 68.443 3.50843C65.2414 3.50843 62.6366 6.11318 62.6366 9.31485C62.6366 12.5165 65.2414 15.1213 68.443 15.1213C69.4119 15.1213 70.1971 15.9067 70.1971 16.8754C70.1971 17.844 69.4117 18.6295 68.443 18.6295C63.3068 18.6295 59.1282 14.4508 59.1282 9.31462C59.1282 4.1784 63.3068 0 68.443 0C73.5793 0 77.7579 4.17863 77.7579 9.31485H74.2495Z" fill="#D0CEE7"/>
<path d="M76.239 51.4716H33.2375C32.2686 51.4716 31.4834 50.6861 31.4834 49.7175C31.4834 48.7486 32.2688 47.9634 33.2375 47.9634H76.239C77.2079 47.9634 77.9931 48.7488 77.9931 49.7175C77.9931 50.6864 77.2077 51.4716 76.239 51.4716Z" fill="#CBE2FF"/>
<path d="M56.8652 59.0323H33.238C32.2691 59.0323 31.4839 58.2468 31.4839 57.2782C31.4839 56.3093 32.2694 55.5241 33.238 55.5241H56.8652C57.8341 55.5241 58.6195 56.3095 58.6195 57.2782C58.6193 58.2468 57.8339 59.0323 56.8652 59.0323Z" fill="#CBE2FF"/>
<path d="M20.8167 59.0323C20.3136 59.0323 19.8321 58.8159 19.4977 58.4345L16.7973 55.3542C16.1587 54.6257 16.2315 53.5174 16.96 52.8788C17.6885 52.2399 18.7966 52.313 19.4355 53.0415L20.6005 54.3704L24.2013 48.7688C24.7252 47.9537 25.8107 47.7181 26.6256 48.2417C27.4406 48.7658 27.6766 49.8511 27.1527 50.666L22.2924 58.2268C21.9944 58.6903 21.4961 58.9867 20.9469 59.0277C20.9033 59.0307 20.86 59.0323 20.8167 59.0323Z" fill="#B3E59F"/>
<path d="M76.239 68.9559H33.2375C32.2686 68.9559 31.4834 68.1704 31.4834 67.2015C31.4834 66.2326 32.2688 65.4474 33.2375 65.4474H76.239C77.2079 65.4474 77.9931 66.2329 77.9931 67.2015C77.9931 68.1704 77.2077 68.9559 76.239 68.9559Z" fill="#CBE2FF"/>
<path d="M56.8652 76.5164H33.238C32.2691 76.5164 31.4839 75.7309 31.4839 74.762C31.4839 73.7931 32.2694 73.0079 33.238 73.0079H56.8652C57.8341 73.0079 58.6195 73.7934 58.6195 74.762C58.6195 75.7307 57.8339 76.5164 56.8652 76.5164Z" fill="#CBE2FF"/>
<path d="M20.8167 76.5163C20.3136 76.5163 19.8321 76.2999 19.4977 75.9185L16.7973 72.8383C16.1587 72.1098 16.2315 71.0015 16.96 70.3628C17.6885 69.724 18.7966 69.797 19.4355 70.5255L20.6005 71.8544L24.2013 66.2529C24.7252 65.4379 25.8107 65.2022 26.6256 65.7258C27.4406 66.2499 27.6766 67.3352 27.1527 68.1501L22.2924 75.7109C21.9944 76.1743 21.4961 76.4707 20.9469 76.5117C20.9033 76.515 20.86 76.5163 20.8167 76.5163Z" fill="#B3E59F"/>
<path d="M76.239 86.4398H33.2375C32.2686 86.4398 31.4834 85.6544 31.4834 84.6857C31.4834 83.7168 32.2688 82.9314 33.2375 82.9314H76.239C77.2079 82.9314 77.9931 83.7168 77.9931 84.6857C77.9931 85.6544 77.2077 86.4398 76.239 86.4398Z" fill="#CBE2FF"/>
<path d="M56.8652 94.0006H33.238C32.2691 94.0006 31.4839 93.2152 31.4839 92.2463C31.4839 91.2774 32.2694 90.4922 33.238 90.4922H56.8652C57.8341 90.4922 58.6195 91.2776 58.6195 92.2463C58.6193 93.2152 57.8339 94.0006 56.8652 94.0006Z" fill="#CBE2FF"/>
<path d="M20.8167 94.0006C20.3136 94.0006 19.8321 93.7842 19.4977 93.4028L16.7973 90.3225C16.1587 89.594 16.2315 88.4857 16.96 87.8471C17.6885 87.2082 18.7966 87.2813 19.4355 88.0098L20.6005 89.3387L24.2013 83.7371C24.7252 82.922 25.8107 82.6864 26.6256 83.21C27.4406 83.7341 27.6766 84.8194 27.1527 85.6343L22.2924 93.1951C21.9944 93.6586 21.4961 93.955 20.9469 93.996C20.9033 93.999 20.86 94.0006 20.8167 94.0006Z" fill="#B3E59F"/>
</svg>
