<svg width="107" height="119" viewBox="0 0 107 119" fill="none" xmlns="http://www.w3.org/2000/svg">
<path d="M92.5335 108.029C91.5624 108.029 90.7754 107.242 90.7754 106.271V100.895C90.7754 99.9241 91.5627 99.1371 92.5335 99.1371C93.5043 99.1371 94.2916 99.9244 94.2916 100.895V106.271C94.2916 107.242 93.5045 108.029 92.5335 108.029Z" fill="#497090"/>
<path d="M95.7213 99.8984L93.7215 101.995C93.0749 102.673 91.9934 102.673 91.3468 101.995L89.347 99.8984C89.0558 99.5931 88.8934 99.1875 88.8934 98.7657V89.9215H96.1751V98.7657C96.1751 99.1875 96.0125 99.5931 95.7213 99.8984Z" fill="#5680A6"/>
<path d="M96.3342 92.2658H88.7336C87.8273 92.2658 87.0927 91.5311 87.0927 90.6248V66.78L89.5361 64.4357H95.5137L97.9751 66.78V90.6248C97.9751 91.5311 97.2407 92.2658 96.3342 92.2658Z" fill="#99E6FC"/>
<path d="M91.782 64.4354V92.2656H88.7346C87.8283 92.2656 87.0936 91.5309 87.0936 90.6247V66.7797L89.3019 64.4354H91.782Z" fill="#62DBFB"/>
<path d="M96.1635 25.4122H88.9042V17.423C88.9042 16.5315 89.6269 15.8088 90.5184 15.8088H94.549C95.4405 15.8088 96.1632 16.5315 96.1632 17.423V25.4122H96.1635Z" fill="#0EBE7F"/>
<path d="M97.9754 66.7801H87.0927V24.6823C87.0927 23.7908 87.8154 23.0681 88.7069 23.0681H96.3612C97.2527 23.0681 97.9754 23.7908 97.9754 24.6823V66.7801Z" fill="#5680A6"/>
<path d="M91.782 23.0675V66.7797H87.0936V24.7082C87.0936 23.8019 87.8283 23.0673 88.7346 23.0673H91.782V23.0675Z" fill="#497090"/>
<path d="M105.242 53.9751C104.271 53.9751 103.484 53.1878 103.484 52.217V32.1303H87.0928C86.1218 32.1303 85.3347 31.3431 85.3347 30.3722C85.3347 29.4014 86.122 28.6141 87.0928 28.6141H105.242C106.213 28.6141 107 29.4014 107 30.3722V52.217C107 53.1881 106.213 53.9751 105.242 53.9751Z" fill="#99E6FC"/>
<path d="M81.17 8.99244V116.453C81.17 117.345 80.4473 118.067 79.5558 118.067H1.6142C0.722702 118.067 0 117.345 0 116.453V8.99244C0 8.10094 0.722702 7.37824 1.6142 7.37824H14.9973L19.7498 9.68424H61.4204L66.1729 7.37824H79.556C80.4473 7.37824 81.17 8.10094 81.17 8.99244Z" fill="#FED2A4"/>
<path d="M66.1734 7.37824V14.7591H14.9978V7.37824H19.7502L22.0224 9.68424H58.9184L61.4209 7.37824H66.1734Z" fill="#FFBD86"/>
<path d="M73.791 16.3734V109.075C73.791 109.966 73.0683 110.689 72.1768 110.689H8.9925C8.101 110.689 7.3783 109.966 7.3783 109.075V16.3734C7.3783 15.4819 8.101 14.7592 8.9925 14.7592H72.1768C73.0683 14.7592 73.791 15.4819 73.791 16.3734Z" fill="#F2FBFF"/>
<path d="M66.1734 14.7592V21.5736C66.1734 22.4651 65.4507 23.1878 64.5592 23.1878H16.612C15.7205 23.1878 14.9978 22.4651 14.9978 21.5736V14.7592H66.1734Z" fill="#DFF6FD"/>
<path d="M4.75129 7.37824V118.067H1.6142C0.722702 118.067 0 117.345 0 116.453V8.99244C0 8.10094 0.722702 7.37824 1.6142 7.37824H4.75129Z" fill="#FFBD86"/>
<path d="M12.1296 14.7592V110.689H8.9925C8.101 110.689 7.3783 109.966 7.3783 109.075V16.3734C7.3783 15.4819 8.101 14.7592 8.9925 14.7592H12.1296Z" fill="#DFF6FD"/>
<path d="M47.9642 7.37922C47.9642 3.30381 44.6604 0 40.585 0C36.5096 0 33.2057 3.30381 33.2057 7.37922H19.7495V16.8223C19.7495 17.7138 20.4722 18.4365 21.3637 18.4365H59.806C60.6975 18.4365 61.4202 17.7138 61.4202 16.8223V7.60982V7.37922H47.9642Z" fill="#62DBFB"/>
<path d="M41.9146 6.00733C42.649 6.7418 42.649 7.93285 41.9146 8.66731C41.1801 9.40177 39.989 9.40177 39.2546 8.66731C38.5201 7.93285 38.5201 6.7418 39.2546 6.00733C39.9893 5.27287 41.1801 5.27287 41.9146 6.00733Z" fill="#5680A6"/>
<path d="M60.9051 75.0819H37.0986C36.1435 75.0819 35.3691 74.3075 35.3691 73.3524C35.3691 72.3972 36.1435 71.6229 37.0986 71.6229H60.9049C61.8601 71.6229 62.6344 72.3972 62.6344 73.3524C62.6344 74.3075 61.8603 75.0819 60.9051 75.0819Z" fill="#5680A6"/>
<path d="M60.9051 82.245H37.0986C36.1435 82.245 35.3691 81.4707 35.3691 80.5155C35.3691 79.5604 36.1435 78.786 37.0986 78.786H60.9049C61.8601 78.786 62.6344 79.5604 62.6344 80.5155C62.6344 81.4707 61.8603 82.245 60.9051 82.245Z" fill="#5680A6"/>
<path d="M60.9051 89.4079H37.0986C36.1435 89.4079 35.3691 88.6336 35.3691 87.6784C35.3691 86.7233 36.1435 85.9489 37.0986 85.9489H60.9049C61.8601 85.9489 62.6344 86.7233 62.6344 87.6784C62.6344 88.6336 61.8603 89.4079 60.9051 89.4079Z" fill="#5680A6"/>
<path d="M29.9343 75.0819H19.1897C18.2346 75.0819 17.4602 74.3075 17.4602 73.3524C17.4602 72.3973 18.2346 71.6229 19.1897 71.6229H29.9343C30.8895 71.6229 31.6638 72.3973 31.6638 73.3524C31.6638 74.3075 30.8895 75.0819 29.9343 75.0819Z" fill="#5680A6"/>
<path d="M29.9355 82.245H19.1909C18.2358 82.245 17.4614 81.4707 17.4614 80.5155C17.4614 79.5604 18.2358 78.786 19.1909 78.786H29.9355C30.8907 78.786 31.665 79.5604 31.665 80.5155C31.665 81.4707 30.8907 82.245 29.9355 82.245Z" fill="#5680A6"/>
<path d="M29.9355 89.4079H19.1909C18.2358 89.4079 17.4614 88.6336 17.4614 87.6784C17.4614 86.7233 18.2358 85.9489 19.1909 85.9489H29.9355C30.8907 85.9489 31.665 86.7233 31.665 87.6784C31.665 88.6336 30.8907 89.4079 29.9355 89.4079Z" fill="#5680A6"/>
<path d="M60.5289 100.037H47.0457C46.0905 100.037 45.3162 99.2627 45.3162 98.3075C45.3162 97.3524 46.0905 96.578 47.0457 96.578H60.5289C61.484 96.578 62.2584 97.3524 62.2584 98.3075C62.2584 99.2627 61.484 100.037 60.5289 100.037Z" fill="#5680A6"/>
<path d="M40.6776 62.6007C50.5656 62.6007 58.5815 54.5849 58.5815 44.6968C58.5815 34.8088 50.5656 26.793 40.6776 26.793C30.7896 26.793 22.7738 34.8088 22.7738 44.6968C22.7738 54.5849 30.7896 62.6007 40.6776 62.6007Z" fill="#0EBE7F"/>
<path d="M49.8086 41.1188H45.8741C44.9826 41.1188 44.2599 40.3961 44.2599 39.5046V35.5701C44.2599 34.6786 43.5372 33.9559 42.6457 33.9559H38.7112C37.8197 33.9559 37.097 34.6786 37.097 35.5701V39.5046C37.097 40.3961 36.3743 41.1188 35.4828 41.1188H31.5483C30.6568 41.1188 29.9341 41.8415 29.9341 42.733V46.6675C29.9341 47.559 30.6568 48.2817 31.5483 48.2817H35.4828C36.3743 48.2817 37.097 49.0044 37.097 49.896V53.8305C37.097 54.722 37.8197 55.4447 38.7112 55.4447H42.6457C43.5372 55.4447 44.2599 54.722 44.2599 53.8305V49.896C44.2599 49.0044 44.9826 48.2817 45.8741 48.2817H49.8086C50.7001 48.2817 51.4228 47.559 51.4228 46.6675V42.733C51.4228 41.8415 50.7001 41.1188 49.8086 41.1188Z" fill="#F2FBFF"/>
</svg>
