<svg width="11" height="14" viewBox="0 0 11 14" fill="none" xmlns="http://www.w3.org/2000/svg">
<path d="M3.48853 12.2883C4.31295 13.4917 6.06283 13.489 6.88545 12.2883H3.48853Z" fill="white"/>
<path d="M9.13646 7.89043C9.0202 7.77553 8.9371 7.63221 8.89464 7.47675C6.58767 7.97504 4.41826 6.2283 4.41826 3.91531C4.41826 2.33966 5.43495 0.994433 6.85391 0.486435C5.68969 -0.250469 4.14798 -0.160684 3.06821 0.828054C2.49074 1.35679 2.1304 2.07216 2.05321 2.84281C1.48291 7.5289 1.50845 7.31872 1.5077 7.32609C1.48679 7.53874 1.391 7.73915 1.23799 7.89041L0.503183 8.61664C0.17871 8.93732 0 9.36375 0 9.81736C0 10.7537 0.770701 11.5154 1.71803 11.5154H8.65634C9.60367 11.5154 10.3744 10.7537 10.3744 9.81736C10.3744 9.36375 10.1957 8.93732 9.87119 8.61664L9.13646 7.89043Z" fill="white"/>
<path d="M11.0004 3.91531C11.0004 2.13072 9.34504 0.761825 7.56057 1.09389C7.56137 1.09484 7.56218 1.09577 7.56057 1.09389C6.21836 1.34734 5.20068 2.51599 5.20068 3.91531C5.20068 5.76508 6.95828 7.14653 8.79191 6.70714C8.79165 6.70497 8.79178 6.70606 8.79191 6.70714C10.0586 6.40282 11.0004 5.25956 11.0004 3.91531ZM8.7066 4.94584C8.7066 5.15926 8.53153 5.33229 8.3156 5.33229C8.09967 5.33229 7.92461 5.15926 7.92461 4.94584V3.27123H7.55705C7.34111 3.27123 7.16605 3.09821 7.16605 2.88479C7.16605 2.67136 7.34111 2.49834 7.55705 2.49834H8.3156C8.53153 2.49834 8.7066 2.67136 8.7066 2.88479V4.94584Z" fill="white"/>
</svg>
