<svg width="28" height="28" viewBox="0 0 28 28" fill="none" xmlns="http://www.w3.org/2000/svg">
<path d="M22.4645 11.0717C25.5169 11.0717 28.0002 8.5884 28.0002 5.53607C28.0002 2.48374 25.5169 0.00038147 22.4645 0.00038147C19.4121 0.00038147 16.9289 2.48369 16.9289 5.53601C16.9289 8.58834 19.4122 11.0717 22.4645 11.0717ZM20.1036 4.5313L21.564 5.99172L24.6548 2.90106L25.8148 4.06115L21.564 8.31195L18.9435 5.69138L20.1036 4.5313Z" fill="#0EBE7F"/>
<path d="M6.46877 20.4688H24.1565L24.9775 12.2579C24.1951 12.5513 23.3484 12.7123 22.4648 12.7123C18.5078 12.7123 15.2885 9.49298 15.2885 5.53602C15.2885 4.92527 15.3654 4.33213 15.5097 3.76562H5.70489L5.32831 0H0V1.64062H3.84355L5.57747 18.9798C4.52364 19.349 3.76562 20.353 3.76562 21.5312C3.76562 23.0217 4.97826 24.2343 6.46877 24.2343H7.73795C7.5979 24.5606 7.52008 24.9198 7.52008 25.2969C7.52008 26.7874 8.73266 28 10.2232 28C11.7137 28 12.9263 26.7874 12.9263 25.2969C12.9263 24.9198 12.8485 24.5607 12.7084 24.2343H17.1745C17.0344 24.5606 16.9566 24.9198 16.9566 25.2969C16.9566 26.7874 18.1693 28 19.6598 28C21.1503 28 22.3629 26.7874 22.3629 25.2969C22.3629 24.9198 22.2851 24.5607 22.145 24.2343H24.1563V22.5937H6.46877C5.8829 22.5937 5.40624 22.1171 5.40624 21.5312C5.40624 20.9454 5.8829 20.4688 6.46877 20.4688ZM17.8979 15.0625H19.5385V16.7031H17.8979V15.0625ZM14.1211 15.0625H15.7618V16.7031H14.1211V15.0625ZM10.3442 15.0625H11.9849V16.7031H10.3442V15.0625Z" fill="#0EBE7F"/>
</svg>
