<svg width="122" height="98" viewBox="0 0 122 98" fill="none" xmlns="http://www.w3.org/2000/svg">
<path d="M122 28.4312V97.4238H29.2285C27.6747 97.4238 26.4177 96.1645 26.4177 94.613V18.9266C26.4177 17.3728 27.6747 16.1159 29.2285 16.1159H63.3148C64.0585 16.1159 64.7729 16.4104 65.3007 16.9382L73.1606 24.7981C73.6884 25.3259 74.4027 25.6204 75.1488 25.6204H119.189C120.741 25.6207 122 26.88 122 28.4312Z" fill="#F9F6F6"/>
<path d="M29.6138 42.3224C29.6138 44.6471 28.3225 46.6696 26.4177 47.7105V36.9342C28.3225 37.9752 29.6138 39.998 29.6138 42.3224Z" fill="#0EBE7F"/>
<path d="M63.0303 29.5116C66.4228 29.5116 69.173 26.7614 69.173 23.3689C69.173 19.9764 66.4228 17.2263 63.0303 17.2263C59.6378 17.2263 56.8877 19.9764 56.8877 23.3689C56.8877 26.7614 59.6378 29.5116 63.0303 29.5116Z" fill="#0EBE7F"/>
<path d="M121.999 28.4312V97.4238H112.666V28.4312C112.666 26.8797 111.41 25.6204 109.856 25.6204H119.188C120.74 25.6207 121.999 26.88 121.999 28.4312Z" fill="white"/>
<path d="M72.6602 64.5524C76.959 64.5524 80.4438 61.0675 80.4438 56.7687C80.4438 52.4699 76.959 48.985 72.6602 48.985C68.3613 48.985 64.8765 52.4699 64.8765 56.7687C64.8765 61.0675 68.3613 64.5524 72.6602 64.5524Z" fill="#BCEA73"/>
<path d="M80.4422 56.7677C80.4422 61.0682 76.9564 64.554 72.6595 64.554C71.2189 64.554 69.8673 64.1627 68.7112 63.4762C71.7667 62.7719 74.0432 60.0367 74.0432 56.7677C74.0432 53.5023 71.7702 50.7632 68.7148 50.0591C69.8709 49.3762 71.2189 48.9849 72.6595 48.9849C76.9564 48.9847 80.4422 52.4708 80.4422 56.7677Z" fill="#99D53B"/>
<path d="M93.3346 62.1789L122 97.4247H27.7534C26.9075 97.4247 26.1069 97.0437 25.5732 96.3875L0.63539 65.7253C-0.858155 63.8888 0.448578 61.1417 2.81566 61.1417H91.1541C92.0002 61.1417 92.801 61.5227 93.3346 62.1789Z" fill="#0EBE7F"/>
<path d="M122 97.4237H109.913L81.2489 62.1788C80.7137 61.5233 79.9136 61.1404 79.0691 61.1404H91.1538C92.0006 61.1404 92.8008 61.5233 93.3335 62.1788L122 97.4237Z" fill="#0EBE7F"/>
<path d="M36.298 61.6926C35.2812 61.6926 34.457 60.8684 34.457 59.8516V57.3969C34.457 56.3801 35.2812 55.5559 36.298 55.5559C37.3147 55.5559 38.1389 56.3801 38.1389 57.3969V59.8516C38.1389 60.8684 37.3147 61.6926 36.298 61.6926Z" fill="#CBE2FF"/>
<path d="M36.298 52.3117C35.2812 52.3117 34.457 51.4875 34.457 50.4708V45.8534C34.457 44.8366 35.2812 44.0124 36.298 44.0124C37.3147 44.0124 38.1389 44.8366 38.1389 45.8534V50.4708C38.1389 51.4873 37.3147 52.3117 36.298 52.3117ZM36.298 40.768C35.2812 40.768 34.457 39.9438 34.457 38.927V34.3096C34.457 33.2929 35.2812 32.4687 36.298 32.4687C37.3147 32.4687 38.1389 33.2929 38.1389 34.3096V38.927C38.1389 39.9435 37.3147 40.768 36.298 40.768ZM36.298 29.2242C35.2812 29.2242 34.457 28.4 34.457 27.3833V22.7656C34.457 21.7489 35.2812 20.9247 36.298 20.9247C37.3147 20.9247 38.1389 21.7489 38.1389 22.7656V27.3833C38.1389 28.4 37.3147 29.2242 36.298 29.2242ZM36.298 17.6805C35.2812 17.6805 34.457 16.8562 34.457 15.8395V11.2219C34.457 10.2051 35.2812 9.3809 36.298 9.3809C37.3147 9.3809 38.1389 10.2051 38.1389 11.2219V15.8393C38.1389 16.856 37.3147 17.6805 36.298 17.6805Z" fill="#CBE2FF"/>
<path d="M36.2992 6.13669C35.2825 6.13669 34.4583 5.31247 34.4583 4.29573V1.84096C34.4583 0.824213 35.2825 0 36.2992 0H38.754C39.7707 0 40.5949 0.824213 40.5949 1.84096C40.5949 2.8577 39.7707 3.68192 38.754 3.68192H38.1404V4.29549C38.1402 5.31247 37.316 6.13669 36.2992 6.13669Z" fill="#CBE2FF"/>
<path d="M99.2997 3.68192H94.456C93.4392 3.68192 92.615 2.8577 92.615 1.84096C92.615 0.824213 93.4392 0 94.456 0H99.2997C100.316 0 101.141 0.824213 101.141 1.84096C101.141 2.8577 100.317 3.68192 99.2997 3.68192ZM87.1905 3.68192H82.3468C81.33 3.68192 80.5058 2.8577 80.5058 1.84096C80.5058 0.824213 81.33 0 82.3468 0H87.1905C88.2073 0 89.0315 0.824213 89.0315 1.84096C89.0315 2.8577 88.2073 3.68192 87.1905 3.68192ZM75.0811 3.68192H70.2373C69.2206 3.68192 68.3964 2.8577 68.3964 1.84096C68.3964 0.824213 69.2206 0 70.2373 0H75.0811C76.0978 0 76.9221 0.824213 76.9221 1.84096C76.9221 2.8577 76.0978 3.68192 75.0811 3.68192ZM62.9714 3.68192H58.1276C57.1109 3.68192 56.2867 2.8577 56.2867 1.84096C56.2867 0.824213 57.1109 0 58.1276 0H62.9714C63.9882 0 64.8124 0.824213 64.8124 1.84096C64.8124 2.8577 63.9882 3.68192 62.9714 3.68192ZM50.862 3.68192H46.0182C45.0015 3.68192 44.1772 2.8577 44.1772 1.84096C44.1772 0.824213 45.0015 0 46.0182 0H50.862C51.8787 0 52.7029 0.824213 52.7029 1.84096C52.7029 2.8577 51.8787 3.68192 50.862 3.68192Z" fill="#CBE2FF"/>
<path d="M109.02 6.13669C108.003 6.13669 107.179 5.31247 107.179 4.29573V3.68192H106.565C105.549 3.68192 104.724 2.8577 104.724 1.84096C104.724 0.824213 105.549 0 106.565 0H109.02C110.037 0 110.861 0.824213 110.861 1.84096V4.29573C110.861 5.31247 110.037 6.13669 109.02 6.13669Z" fill="#CBE2FF"/>
<path d="M109.02 69.2876C108.004 69.2876 107.179 68.4633 107.179 67.4466V62.3946C107.179 61.3778 108.004 60.5536 109.02 60.5536C110.037 60.5536 110.861 61.3778 110.861 62.3946V67.4466C110.862 68.4633 110.037 69.2876 109.02 69.2876ZM109.02 56.6575C108.004 56.6575 107.179 55.8333 107.179 54.8165V49.7645C107.179 48.7477 108.004 47.9235 109.02 47.9235C110.037 47.9235 110.861 48.7477 110.861 49.7645V54.8165C110.862 55.833 110.037 56.6575 109.02 56.6575ZM109.02 44.0274C108.004 44.0274 107.179 43.2032 107.179 42.1864V37.1342C107.179 36.1174 108.004 35.2932 109.02 35.2932C110.037 35.2932 110.861 36.1174 110.861 37.1342V42.1862C110.862 43.2029 110.037 44.0274 109.02 44.0274ZM109.02 31.3971C108.004 31.3971 107.179 30.5729 107.179 29.5561V24.5041C107.179 23.4873 108.004 22.6631 109.02 22.6631C110.037 22.6631 110.861 23.4873 110.861 24.5041V29.5561C110.862 30.5729 110.037 31.3971 109.02 31.3971ZM109.02 18.767C108.004 18.767 107.179 17.9428 107.179 16.926V11.874C107.179 10.8573 108.004 10.033 109.02 10.033C110.037 10.033 110.861 10.8573 110.861 11.874V16.926C110.862 17.9425 110.037 18.767 109.02 18.767Z" fill="#CBE2FF"/>
<path d="M109.02 79.3204C108.004 79.3204 107.179 78.4962 107.179 77.4794V75.0247C107.179 74.0079 108.004 73.1837 109.02 73.1837C110.037 73.1837 110.861 74.0079 110.861 75.0247V77.4794C110.862 78.4962 110.037 79.3204 109.02 79.3204Z" fill="#CBE2FF"/>
<path d="M63.0303 23.369C66.4228 23.369 69.173 20.6188 69.173 17.2263C69.173 13.8338 66.4228 11.0837 63.0303 11.0837C59.6378 11.0837 56.8877 13.8338 56.8877 17.2263C56.8877 20.6188 59.6378 23.369 63.0303 23.369Z" fill="#A8E7EF"/>
<path d="M69.1722 17.2256C69.1722 20.6192 66.4213 23.3702 63.0306 23.3702C61.8937 23.3702 60.8269 23.0614 59.9148 22.5198C62.326 21.9641 64.1226 19.8055 64.1226 17.2256C64.1226 14.6486 62.3288 12.4874 59.9177 11.9315C60.83 11.3925 61.8937 11.0837 63.0306 11.0837C66.4215 11.0839 69.1722 13.8347 69.1722 17.2256Z" fill="#70D9E6"/>
<path d="M23.4717 42.8903C26.8642 42.8903 29.6144 40.1401 29.6144 36.7476C29.6144 33.3552 26.8642 30.605 23.4717 30.605C20.0793 30.605 17.3291 33.3552 17.3291 36.7476C17.3291 40.1401 20.0793 42.8903 23.4717 42.8903Z" fill="#64B9FC"/>
<path d="M29.6137 36.747C29.6137 40.1406 26.8627 42.8915 23.472 42.8915C22.3351 42.8915 21.2683 42.5827 20.3562 42.0411C22.7674 41.4854 24.564 39.3268 24.564 36.747C24.564 34.1699 22.7702 32.0087 20.3591 31.4528C21.2714 30.9138 22.3351 30.605 23.472 30.605C26.8627 30.6053 29.6137 33.356 29.6137 36.747Z" fill="#31A7FB"/>
<path d="M83.0471 37.962L84.3557 36.6533C85.0748 35.9345 85.0748 34.7688 84.3557 34.0496C83.6368 33.3308 82.4712 33.3308 81.752 34.0496L80.4434 35.3583L79.1347 34.0496C78.4159 33.3308 77.2502 33.3308 76.531 34.0496C75.8119 34.7685 75.8119 35.9342 76.531 36.6533L77.8397 37.962L76.531 39.2706C75.8119 39.9895 75.8119 41.1552 76.531 41.8743C76.8906 42.2339 77.3617 42.4135 77.8328 42.4135C78.3039 42.4135 78.7752 42.2336 79.1345 41.8743L80.4431 40.5657L81.7518 41.8743C82.1114 42.2339 82.5824 42.4135 83.0535 42.4135C83.5246 42.4135 83.9959 42.2336 84.3552 41.8743C85.0744 41.1554 85.0744 39.9898 84.3552 39.2706L83.0471 37.962Z" fill="#A8E7EF"/>
<path d="M23.6237 5.53312L24.9324 4.22448C25.6515 3.50559 25.6515 2.33992 24.9324 1.62079C24.2135 0.901893 23.0478 0.901893 22.3287 1.62079L21.02 2.92943L19.7114 1.62079C18.9925 0.901893 17.8268 0.901893 17.1077 1.62079C16.3886 2.33968 16.3886 3.50535 17.1077 4.22448L18.4163 5.53312L17.1079 6.84176C16.3888 7.56066 16.3888 8.72633 17.1079 9.44546C17.4675 9.80502 17.9386 9.98469 18.4097 9.98469C18.8808 9.98469 19.3521 9.80479 19.7114 9.44546L21.02 8.13682L22.3287 9.44546C22.6882 9.80502 23.1593 9.98469 23.6304 9.98469C24.1015 9.98469 24.5728 9.80479 24.9321 9.44546C25.6513 8.72656 25.6513 7.56089 24.9321 6.84176L23.6237 5.53312Z" fill="#BCEA73"/>
<path d="M100.657 89.1583H75.8594C75.0929 89.1583 74.3704 88.8001 73.906 88.1901L67.551 79.84C66.936 79.032 67.5124 77.8695 68.5277 77.8695H93.3249C94.0915 77.8695 94.814 78.2276 95.2784 78.8376L101.633 87.1877C102.248 87.9954 101.672 89.1583 100.657 89.1583Z" fill="#F8F3F1"/>
<path d="M100.656 89.1566H92.6779C93.6942 89.1566 94.2711 87.9954 93.6549 87.1855L87.2997 78.8371C86.8357 78.2259 86.114 77.8675 85.3481 77.8675H93.3236C94.0919 77.8675 94.8136 78.2259 95.2776 78.8371L101.633 87.1855C102.246 87.9957 101.672 89.1566 100.656 89.1566Z" fill="#EFE2DD"/>
<path d="M61 90.9978H49.736C48.7192 90.9978 47.895 90.1736 47.895 89.1568C47.895 88.1401 48.7192 87.3159 49.736 87.3159H61C62.0167 87.3159 62.841 88.1401 62.841 89.1568C62.841 90.1736 62.0167 90.9978 61 90.9978Z" fill="#F8F3F1"/>
<path d="M56.8894 84.8914H52.1083C51.0916 84.8914 50.2673 84.0671 50.2673 83.0504C50.2673 82.0336 51.0916 81.2094 52.1083 81.2094H56.8894C57.9061 81.2094 58.7304 82.0336 58.7304 83.0504C58.7306 84.0671 57.9064 84.8914 56.8894 84.8914Z" fill="#F8F3F1"/>
</svg>
