<svg width="27" height="19" viewBox="0 0 27 19" fill="none" xmlns="http://www.w3.org/2000/svg">
<path d="M26.9091 4.36222V2.94318C26.9091 1.3177 25.5914 0 23.9659 0H2.94318C1.3177 0 0 1.3177 0 2.94318V4.36222C0 4.50733 0.117675 4.625 0.262784 4.625H26.6463C26.7914 4.625 26.9091 4.50733 26.9091 4.36222Z" fill="#0EBE7F"/>
<path d="M0 6.56961V15.5568C0 17.1823 1.3177 18.5 2.94318 18.5H23.9659C25.5914 18.5 26.9091 17.1823 26.9091 15.5568V6.56961C26.9091 6.4245 26.7914 6.30682 26.6463 6.30682H0.262784C0.117675 6.30682 0 6.4245 0 6.56961ZM6.72727 13.4546C6.72727 13.9189 6.35076 14.2955 5.88636 14.2955H5.04545C4.58106 14.2955 4.20455 13.9189 4.20455 13.4546V12.6136C4.20455 12.1493 4.58106 11.7727 5.04545 11.7727H5.88636C6.35076 11.7727 6.72727 12.1493 6.72727 12.6136V13.4546Z" fill="#0EBE7F"/>
</svg>
