<svg width="14" height="17" viewBox="0 0 14 17" fill="none" xmlns="http://www.w3.org/2000/svg">
<path d="M9.57847 7.31606C9.62162 7.25552 9.63842 7.21671 9.64508 7.19585C9.60946 7.17703 9.56225 7.13879 9.30475 7.13879C9.15848 7.13879 8.97485 7.14517 8.78021 7.17008C9.01627 7.35168 9.07391 7.4435 9.22829 7.4435C9.29577 7.44379 9.48926 7.44089 9.57847 7.31606Z" fill="#677294"/>
<path d="M4.06561 9.45218C4.10877 9.43857 4.36076 9.32358 4.83027 8.45697C4.21101 8.80483 3.95902 9.09071 3.94107 9.25175C3.93788 9.27839 3.93006 9.34849 4.06561 9.45218Z" fill="#677294"/>
<path d="M13.0339 11.296V4.04861C13.0339 3.82675 13.0072 3.66252 12.8746 3.52957L9.50401 0.159303C9.40293 0.058218 9.26274 0 9.11937 0H0.713388C0.369873 0 0 0.265312 0 0.847492V11.296H13.0339ZM8.97889 0.982175C8.97889 0.849519 9.13906 0.783191 9.23291 0.877035L12.1568 3.80097C12.2507 3.89481 12.1844 4.05498 12.0517 4.05498H8.97889V0.982175ZM3.456 9.19757C3.50872 8.72604 4.09177 8.23249 5.18951 7.72967C5.62513 6.77501 6.03961 5.59877 6.28667 4.61602C5.99761 3.98692 5.71666 3.17071 5.92144 2.69193C5.99327 2.52423 6.08277 2.39563 6.24989 2.34002C6.31593 2.318 6.48276 2.2902 6.54416 2.2902C6.69014 2.2902 6.81846 2.47817 6.9094 2.59403C6.99485 2.70294 7.18862 2.93378 6.80137 4.56417C7.1918 5.37054 7.74502 6.19196 8.27506 6.75444C8.65478 6.6858 8.9815 6.65075 9.24768 6.65075C9.70126 6.65075 9.97613 6.75647 10.0882 6.97428C10.1809 7.15444 10.143 7.36501 9.97526 7.59991C9.81393 7.82554 9.59149 7.94487 9.33226 7.94487C8.98005 7.94487 8.56992 7.72243 8.11257 7.28304C7.29086 7.4548 6.33099 7.76124 5.55562 8.10041C5.31348 8.61423 5.08147 9.02813 4.8654 9.33168C4.5691 9.74818 4.31305 9.94195 4.05962 9.94195C3.95882 9.94195 3.86208 9.90922 3.77953 9.84753C3.47744 9.62074 3.43689 9.36904 3.456 9.19757Z" fill="#677294"/>
<path d="M4.26397 13.2824C4.22285 13.2256 4.1655 13.1781 4.09164 13.1399C4.01778 13.1016 3.91988 13.0825 3.79852 13.0825H3.44226V14.2388H3.87788C3.93581 14.2388 3.99316 14.2289 4.05022 14.2089C4.10699 14.1892 4.15912 14.1568 4.20663 14.1119C4.25413 14.067 4.29236 14.0044 4.32132 13.9239C4.35029 13.8434 4.36477 13.7438 4.36477 13.625C4.36477 13.5775 4.35811 13.5225 4.34507 13.4608C4.33175 13.3988 4.30481 13.3394 4.26397 13.2824Z" fill="#677294"/>
<path d="M6.61612 5.26398C6.40873 5.98055 6.1356 6.75418 5.84161 7.45483C6.44696 7.21993 7.10503 7.01486 7.72313 6.86975C7.33211 6.41559 6.94138 5.84847 6.61612 5.26398Z" fill="#677294"/>
<path d="M0 11.8753V16.2199C0 16.5122 0.353363 16.7992 0.713388 16.7992H12.3205C12.6805 16.7992 13.0339 16.5122 13.0339 16.2199V11.8753H0ZM4.74897 14.0271C4.69886 14.1473 4.62876 14.2483 4.53898 14.33C4.44919 14.4117 4.34086 14.4751 4.21429 14.52C4.08771 14.5649 3.94753 14.5872 3.7946 14.5872H3.4421V15.6406H2.9668V12.7222H3.80618C3.93015 12.7222 4.05296 12.7419 4.17432 12.7816C4.29568 12.8213 4.40458 12.8807 4.50103 12.9597C4.59748 13.0388 4.6754 13.1347 4.73477 13.2468C4.79415 13.3589 4.82398 13.4848 4.82398 13.625C4.82427 13.773 4.79907 13.9069 4.74897 14.0271ZM7.6616 14.7161C7.61005 14.8864 7.54488 15.0289 7.46552 15.1439C7.38615 15.2589 7.29723 15.3493 7.19818 15.4153C7.09912 15.4813 7.00354 15.5306 6.91114 15.5639C6.81875 15.5969 6.73417 15.6181 6.6577 15.6273C6.58124 15.636 6.52447 15.6406 6.4874 15.6406H5.3827V12.7222H6.26176C6.50738 12.7222 6.72316 12.7613 6.90911 12.8389C7.09506 12.9166 7.24973 13.0205 7.37254 13.1497C7.49535 13.2789 7.58687 13.4263 7.6477 13.5911C7.70823 13.7559 7.73865 13.9257 7.73865 14.1C7.73894 14.3404 7.71316 14.5458 7.6616 14.7161ZM10.2533 13.0825H8.91083V14.0013H10.1305V14.326H8.91083V15.6406H8.4277V12.7222H10.2533V13.0825Z" fill="#677294"/>
<path d="M7.02812 13.4052C6.945 13.3088 6.83204 13.2309 6.68953 13.1715C6.54703 13.1121 6.36224 13.0823 6.13516 13.0823H5.85797V15.292H6.32922C6.6513 15.292 6.88359 15.1891 7.0261 14.9832C7.1686 14.7773 7.23985 14.4789 7.23985 14.0882C7.23985 13.9668 7.22537 13.8466 7.19641 13.7279C7.16715 13.6091 7.11125 13.5017 7.02812 13.4052Z" fill="#677294"/>
<path d="M6.44039 2.81303C6.412 2.82258 6.05517 3.32193 6.4682 3.74451C6.74307 3.13192 6.45284 2.80897 6.44039 2.81303Z" fill="#677294"/>
</svg>
